<svg width="78" height="91" viewBox="0 0 78 91" fill="none" xmlns="http://www.w3.org/2000/svg">
<g clip-path="url(#clip0_190_110)">
<path d="M43.7408 90.9999H64.9659C65.3909 90.9996 65.8083 90.8875 66.1763 90.6748C66.5443 90.4622 66.85 90.1564 67.0628 89.7883L77.6753 71.3945C77.8881 71.0262 78.0002 70.6083 78.0002 70.1828C78.0002 69.7574 77.8881 69.3395 77.6753 68.9712L67.0713 50.5773C66.8586 50.2092 66.5529 49.9035 66.1849 49.6908C65.8168 49.4782 65.3994 49.3661 64.9744 49.3657H43.7494C43.3239 49.3656 42.9059 49.4775 42.5374 49.6901C42.1688 49.9028 41.8626 50.2088 41.6497 50.5773L31.0314 68.9712C30.8186 69.3395 30.7065 69.7574 30.7065 70.1828C30.7065 70.6083 30.8186 71.0262 31.0314 71.3945L41.6411 89.7883C41.8541 90.1569 42.1602 90.4628 42.5288 90.6755C42.8974 90.8882 43.3154 91.0001 43.7408 90.9999Z" fill="#EB9C3D"/>
<path d="M11.1196 67.6625H28.4985C28.9236 67.6624 29.3411 67.5504 29.7092 67.3377C30.0772 67.1251 30.3829 66.8192 30.5954 66.4509L39.2934 51.3783C39.5062 51.0095 39.6182 50.5911 39.6182 50.1652C39.6182 49.7394 39.5062 49.321 39.2934 48.9522L30.604 33.8796C30.3914 33.5113 30.0858 33.2054 29.7177 32.9927C29.3496 32.78 28.9321 32.668 28.5071 32.668H11.1282C10.7027 32.6678 10.2847 32.7797 9.91614 32.9924C9.54758 33.2051 9.24143 33.511 9.02845 33.8796L0.330447 48.9522C0.119037 49.3215 0.0078125 49.7396 0.0078125 50.1652C0.0078125 50.5908 0.119037 51.009 0.330447 51.3783L9.02845 66.4509C9.2407 66.8182 9.54551 67.1233 9.91244 67.3359C10.2794 67.5485 10.6956 67.6611 11.1196 67.6625Z" fill="#F4BE6A"/>
<path d="M17.6012 31.1028H27.9516C28.3774 31.103 28.7957 30.9908 29.1643 30.7776C29.533 30.5643 29.8389 30.2576 30.0513 29.8883L35.228 20.9195C35.4394 20.5502 35.5506 20.132 35.5506 19.7064C35.5506 19.2809 35.4394 18.8627 35.228 18.4934L30.0513 9.52168C29.8383 9.15313 29.5322 8.84715 29.1636 8.63447C28.7951 8.42179 28.3771 8.30991 27.9516 8.31006H17.6012C17.1757 8.30991 16.7577 8.42179 16.3892 8.63447C16.0206 8.84715 15.7144 9.15313 15.5015 9.52168L10.3248 18.4934C10.112 18.8622 10 19.2806 10 19.7064C10 20.1323 10.112 20.5507 10.3248 20.9195L15.5043 29.8883C15.7165 30.2572 16.022 30.5637 16.3901 30.7768C16.7582 30.99 17.1759 31.1025 17.6012 31.1028Z" fill="#EB9C3D"/>
<path d="M38.1223 18.3283H45.9001C46.3251 18.3282 46.7426 18.2162 47.1107 18.0035C47.4788 17.7909 47.7844 17.485 47.9969 17.1167L51.8858 10.3772C52.0986 10.0084 52.2106 9.59002 52.2106 9.16415C52.2106 8.73828 52.0986 8.31991 51.8858 7.9511L47.9969 1.21162C47.7844 0.843294 47.4788 0.53742 47.1107 0.324739C46.7426 0.112058 46.3251 6.09955e-05 45.9001 1.52057e-07H38.1223C37.6968 -0.000150557 37.2788 0.111731 36.9102 0.324408C36.5417 0.537086 36.2355 0.84307 36.0226 1.21162L32.1337 7.9511C31.9223 8.32038 31.811 8.73856 31.811 9.16415C31.811 9.58973 31.9223 10.0079 32.1337 10.3772L36.0169 17.1167C36.2303 17.4861 36.5374 17.7926 36.907 18.0053C37.2767 18.218 37.6959 18.3294 38.1223 18.3283Z" fill="#F4BE6A"/>
<path d="M51.5557 60.6495L53.3078 58.5312L61.2879 66.4567L51.5557 60.6495Z" fill="white"/>
<path d="M52.4586 50.7285C52.4586 50.7285 49.3247 59.0759 43.3418 60.8919C43.3418 60.8919 49.3247 63.3722 52.0712 58.9562C54.8176 54.5401 52.4586 50.7285 52.4586 50.7285Z" fill="white"/>
<path d="M46.4133 46.3667C46.4133 46.3667 46.1113 53.3856 39.04 57.257C39.04 57.257 40.852 59.7373 41.7608 59.9169C41.7608 59.9169 50.4047 55.6235 50.6469 48.1827C50.6469 48.1884 50.1027 46.9768 46.4133 46.3667Z" fill="white"/>
<path d="M40.9743 45.6455C40.9743 45.6455 40.8518 49.5797 36.0171 51.6323L37.6496 55.0192C37.6496 55.0192 43.7094 54.238 44.849 46.0104L40.9743 45.6455Z" fill="white"/>
<path d="M34.228 49.5141C36.8856 49.5141 39.0399 47.3583 39.0399 44.6989C39.0399 42.0396 36.8856 39.8838 34.228 39.8838C31.5704 39.8838 29.416 42.0396 29.416 44.6989C29.416 47.3583 31.5704 49.5141 34.228 49.5141Z" fill="white"/>
<path d="M41.8945 43.4331C41.8945 43.4331 43.2905 21.9176 54.9515 27.3884C54.9515 27.3884 56.7749 29.1502 54.9515 32.614C54.9515 32.614 46.1395 31.8415 41.8945 43.4331Z" fill="white"/>
<path d="M42.1968 43.4329C42.1968 43.4329 50.6013 34.0592 55.7609 34.0592C55.7609 34.0592 60.4219 33.2467 61.8008 37.3206C61.8008 37.3206 63.0515 43.0851 50.2765 45.152C50.2765 45.152 44.8891 45.8476 42.1968 43.4329Z" fill="white"/>
</g>
<defs>
<clipPath id="clip0_190_110">
<rect width="78" height="91" fill="white"/>
</clipPath>
</defs>
</svg>
